<svg xmlns="http://www.w3.org/2000/svg" width="840" height="560" viewBox="0 0 840 560" font-family="Helvetica,Arial,sans-serif">
<rect width="840" height="560" fill="#ffffff"/>
<text x="420" y="28" text-anchor="middle" font-size="19" font-weight="bold" fill="#1d1d20">Static compression curve (1 kHz, position 1)</text>
<rect x="78.0" y="52.0" width="592.0" height="444.0" fill="none" stroke="#cccccc" stroke-width="1"/>
<line x1="165.7" y1="52.0" x2="165.7" y2="496.0" stroke="#eeeeee" stroke-width="1"/>
<line x1="165.7" y1="496.0" x2="165.7" y2="501.0" stroke="#888888" stroke-width="1"/>
<text x="165.7" y="514.0" text-anchor="middle" font-size="12" fill="#444444">-40</text>
<line x1="275.3" y1="52.0" x2="275.3" y2="496.0" stroke="#eeeeee" stroke-width="1"/>
<line x1="275.3" y1="496.0" x2="275.3" y2="501.0" stroke="#888888" stroke-width="1"/>
<text x="275.3" y="514.0" text-anchor="middle" font-size="12" fill="#444444">-30</text>
<line x1="385.0" y1="52.0" x2="385.0" y2="496.0" stroke="#eeeeee" stroke-width="1"/>
<line x1="385.0" y1="496.0" x2="385.0" y2="501.0" stroke="#888888" stroke-width="1"/>
<text x="385.0" y="514.0" text-anchor="middle" font-size="12" fill="#444444">-20</text>
<line x1="494.6" y1="52.0" x2="494.6" y2="496.0" stroke="#eeeeee" stroke-width="1"/>
<line x1="494.6" y1="496.0" x2="494.6" y2="501.0" stroke="#888888" stroke-width="1"/>
<text x="494.6" y="514.0" text-anchor="middle" font-size="12" fill="#444444">-10</text>
<line x1="604.2" y1="52.0" x2="604.2" y2="496.0" stroke="#eeeeee" stroke-width="1"/>
<line x1="604.2" y1="496.0" x2="604.2" y2="501.0" stroke="#888888" stroke-width="1"/>
<text x="604.2" y="514.0" text-anchor="middle" font-size="12" fill="#444444">0</text>
<line x1="78.0" y1="430.2" x2="670.0" y2="430.2" stroke="#eeeeee" stroke-width="1"/>
<line x1="73.0" y1="430.2" x2="78.0" y2="430.2" stroke="#888888" stroke-width="1"/>
<text x="69.0" y="434.2" text-anchor="end" font-size="12" fill="#444444">-40</text>
<line x1="78.0" y1="348.0" x2="670.0" y2="348.0" stroke="#eeeeee" stroke-width="1"/>
<line x1="73.0" y1="348.0" x2="78.0" y2="348.0" stroke="#888888" stroke-width="1"/>
<text x="69.0" y="352.0" text-anchor="end" font-size="12" fill="#444444">-30</text>
<line x1="78.0" y1="265.8" x2="670.0" y2="265.8" stroke="#eeeeee" stroke-width="1"/>
<line x1="73.0" y1="265.8" x2="78.0" y2="265.8" stroke="#888888" stroke-width="1"/>
<text x="69.0" y="269.8" text-anchor="end" font-size="12" fill="#444444">-20</text>
<line x1="78.0" y1="183.6" x2="670.0" y2="183.6" stroke="#eeeeee" stroke-width="1"/>
<line x1="73.0" y1="183.6" x2="78.0" y2="183.6" stroke="#888888" stroke-width="1"/>
<text x="69.0" y="187.6" text-anchor="end" font-size="12" fill="#444444">-10</text>
<line x1="78.0" y1="101.3" x2="670.0" y2="101.3" stroke="#eeeeee" stroke-width="1"/>
<line x1="73.0" y1="101.3" x2="78.0" y2="101.3" stroke="#888888" stroke-width="1"/>
<text x="69.0" y="105.3" text-anchor="end" font-size="12" fill="#444444">0</text>
<text x="374.0" y="538.0" text-anchor="middle" font-size="13" fill="#1d1d20">Input level (dBFS)</text>
<text x="22" y="274" text-anchor="middle" font-size="13" fill="#1d1d20" transform="rotate(-90 22 274)">Output level (dBFS)</text>
<path d=" M78.0,496.0 L143.8,446.7 L209.6,397.3 L275.3,348.0 L341.1,298.7 L406.9,249.3 L472.7,200.0 L538.4,150.7 L604.2,101.3 L670.0,52.0" fill="none" stroke="#888888" stroke-width="2"/>
<line x1="684.0" y1="58.0" x2="708.0" y2="58.0" stroke="#888888" stroke-width="2.5"/>
<text x="714.0" y="62.0" text-anchor="start" font-size="12" fill="#1d1d20">Unity</text>
<path d=" M78.0,496.0 L99.9,479.7 L121.9,463.2 L143.8,446.8 L165.7,430.4 L187.6,414.1 L209.6,397.7 L231.5,381.5 L253.4,365.3 L275.3,349.2 L297.3,333.3 L319.2,317.7 L341.1,302.5 L363.0,287.7 L385.0,273.4 L406.9,259.8 L428.8,246.9 L450.7,234.7 L472.7,223.1 L494.6,212.2 L516.5,201.8 L538.4,191.9 L560.4,182.3 L582.3,173.0 L604.2,164.0 L626.1,155.2 L648.1,146.6 L670.0,138.2" fill="none" stroke="#3a78c4" stroke-width="2"/>
<line x1="684.0" y1="78.0" x2="708.0" y2="78.0" stroke="#3a78c4" stroke-width="2.5"/>
<text x="714.0" y="82.0" text-anchor="start" font-size="12" fill="#1d1d20">Threshold 3</text>
<path d=" M78.0,496.0 L99.9,479.8 L121.9,463.4 L143.8,447.1 L165.7,430.8 L187.6,414.6 L209.6,398.5 L231.5,382.7 L253.4,367.1 L275.3,351.8 L297.3,337.0 L319.2,322.7 L341.1,309.1 L363.0,296.1 L385.0,283.9 L406.9,272.3 L428.8,261.3 L450.7,250.8 L472.7,240.8 L494.6,231.0 L516.5,221.6 L538.4,212.2 L560.4,203.0 L582.3,193.9 L604.2,184.8 L626.1,175.7 L648.1,166.6 L670.0,157.6" fill="none" stroke="#d49a3a" stroke-width="2"/>
<line x1="684.0" y1="98.0" x2="708.0" y2="98.0" stroke="#d49a3a" stroke-width="2.5"/>
<text x="714.0" y="102.0" text-anchor="start" font-size="12" fill="#1d1d20">Threshold 5</text>
<path d=" M78.0,496.0 L99.9,480.1 L121.9,463.9 L143.8,447.9 L165.7,432.0 L187.6,416.4 L209.6,401.1 L231.5,386.3 L253.4,372.0 L275.3,358.4 L297.3,345.4 L319.2,333.2 L341.1,321.6 L363.0,310.6 L385.0,300.1 L406.9,290.0 L428.8,280.2 L450.7,270.7 L472.7,261.3 L494.6,252.0 L516.5,242.7 L538.4,233.4 L560.4,224.0 L582.3,214.6 L604.2,204.9 L626.1,195.2 L648.1,185.3 L670.0,175.4" fill="none" stroke="#b03a2e" stroke-width="2"/>
<line x1="684.0" y1="118.0" x2="708.0" y2="118.0" stroke="#b03a2e" stroke-width="2.5"/>
<text x="714.0" y="122.0" text-anchor="start" font-size="12" fill="#1d1d20">Threshold 7</text>
</svg>
